#!OML:ASF G:\ViconDB\ViconDB\414\test\team2\shane.ASF
:FULLY-SPECIFIED
:DEGREES
411
root 18.4192 16.799 -8.92927 -191.765 -17.5868 -171.724
lowerback 9.71685 -1.83849 0.0518434
upperback 4.25135 -2.78806 2.54017
thorax -0.901383 -1.58364 2.88546
lowerneck -17.0937 -2.97055 -9.65209
upperneck 22.485 -3.54289 6.10558
head 10.2889 -1.95384 3.26038
rclavicle 2.51711e-014 7.95139e-016
rhumerus -45.9985 -7.74893 -78.5837
rradius 24.947
rwrist 45.1872
rhand -27.7708 -11.5797
rfingers 7.12502
rthumb -1.16452 -41.5563
lclavicle 2.51711e-014 7.95139e-016
lhumerus -16.5339 -26.859 95.2375
lradius 30.5887
lwrist -19.534
lhand -40.9142 6.42129
lfingers 7.12502
lthumb -13.849 35.9402
rfemur -9.19297 -10.303 16.9661
rtibia 36.7894
rfoot -16.4402 -2.69748
rtoes -13.3635
lfemur 15.1423 8.27075 -11.5339
ltibia 14.7458
lfoot -22.172 -30.8314
ltoes -6.45337
412
root 18.3985 16.7904 -9.07777 -191.717 -18.241 -171.66
lowerback 9.65715 -1.91018 -0.0579613
upperback 4.21471 -2.88793 2.62982
thorax -0.891593 -1.6339 3.04829
lowerneck -17.1431 -2.99779 -9.92157
upperneck 22.5368 -3.56575 6.35393
head 10.3289 -1.95884 3.39317
rclavicle -1.79652e-014 -7.95139e-016
rhumerus -46.5651 -8.61597 -77.4666
rradius 24.3625
rwrist 45.8324
rhand -27.4709 -11.6569
rfingers 7.12502
rthumb -0.874862 -41.6349
lclavicle -1.79652e-014 -7.95139e-016
lhumerus -16.2234 -27.6176 95.2853
lradius 31.4738
lwrist -20.0726
lhand -40.8802 6.73267
lfingers 7.12502
lthumb -13.8162 36.2538
rfemur -9.98161 -11.3436 17.3268
rtibia 34.5024
rfoot -16.8904 -1.57454
rtoes -13.6075
lfemur 16.0162 7.9385 -11.3795
ltibia 13.6337
lfoot -21.7633 -31.3206
ltoes -6.42896
413
root 18.3699 16.7954 -9.23134 -191.711 -18.6778 -171.613
lowerback 9.61599 -1.94221 -0.0796013
upperback 4.16002 -2.92518 2.67995
thorax -0.919978 -1.6501 3.11579
lowerneck -17.0444 -2.97632 -10.0399
upperneck 22.4817 -3.54365 6.49021
head 10.2927 -1.94366 3.46518
rclavicle 1.86609e-014 -2.90226e-014
rhumerus -47.2663 -9.51347 -76.3249
rradius 23.8251
rwrist 46.9576
rhand -27.211 -11.4445
rfingers 7.12502
rthumb -0.623894 -41.4233
lclavicle 1.86609e-014 -2.90226e-014
lhumerus -16.0102 -28.4778 95.4119
lradius 32.3049
lwrist -19.3638
lhand -41.0756 6.55194
lfingers 7.12502
lthumb -14.0045 36.0602
rfemur -10.8965 -11.2055 17.8454
rtibia 32.3554
rfoot -16.9709 -1.29665
rtoes -13.185
lfemur 17.1177 7.17516 -11.4324
ltibia 12.284
lfoot -21.3981 -31.0081
ltoes -6.58669
414
root 18.3428 16.7682 -9.38458 -191.76 -19.2094 -171.657
lowerback 9.72863 -2.02474 -0.092219
upperback 4.11948 -3.02852 2.63117
thorax -1.02022 -1.69778 3.08945
lowerneck -16.8764 -2.89618 -9.53703
upperneck 22.3081 -3.42712 5.92245
head 10.1684 -1.90864 3.19009
rclavicle -2.70844e-014 2.54444e-014
rhumerus -47.911 -10.1614 -75.4222
rradius 23.3535
rwrist 47.5389
rhand -27.1583 -11.4398
rfingers 7.12502
rthumb -0.573003 -41.4188
lclavicle -2.70844e-014 2.54444e-014
lhumerus -15.7986 -28.8593 95.3963
lradius 32.9819
lwrist -19.3694
lhand -41.3063 6.2845
lfingers 7.12502
lthumb -14.2268 35.7772
rfemur -11.4437 -12.4739 18.1775
rtibia 30.5903
rfoot -17.7852 0.262981
rtoes -13.3171
lfemur 18.4308 7.17094 -11.2518
ltibia 10.6615
lfoot -20.819 -31.4893
ltoes -6.78459
415
root 18.3073 16.7522 -9.54489 -191.742 -19.6397 -171.942
lowerback 9.65702 -2.01725 -0.291049
upperback 4.14887 -3.03326 2.53619
thorax -0.945713 -1.69973 3.09836
lowerneck -16.9798 -2.88168 -9.63439
upperneck 22.4017 -3.42018 6.10568
head 10.2256 -1.893 3.27462
rclavicle -2.70844e-014 2.54444e-014
rhumerus -47.911 -10.1614 -75.4222
rradius 23.3535
rwrist 47.5389
rhand -27.1583 -11.4398
rfingers 7.12502
rthumb -0.573003 -41.4188
lclavicle 9.14409e-015 -1.59028e-014
lhumerus -15.6538 -29.4579 95.4092
lradius 33.8532
lwrist -19.3696
lhand -41.059 6.32333
lfingers 7.12502
lthumb -13.9885 35.8327
rfemur -12.2201 -14.3265 18.3164
rtibia 29.0664
rfoot -18.2979 2.63047
rtoes -13.1651
lfemur 20.0051 6.86347 -11.4872
ltibia 8.68207
lfoot -20.1028 -31.6053
ltoes -6.74764
416
root 18.2757 16.7442 -9.69753 -191.772 -20.1552 -171.928
lowerback 9.62529 -2.04738 -0.314279
upperback 4.17848 -3.07798 2.57338
thorax -0.891751 -1.72444 3.1518
lowerneck -17.0885 -2.93736 -9.8456
upperneck 22.4258 -3.4968 6.38953
head 10.2709 -1.91038 3.40233
rclavicle -4.07509e-015 -2.06736e-014
rhumerus -49.1571 -11.7427 -73.2758
rradius 22.7927
rwrist 49.3636
rhand -26.7945 -11.494
rfingers 7.12502
rthumb -0.221585 -41.4736
lclavicle -4.07509e-015 -2.06736e-014
lhumerus -15.4201 -29.845 95.4915
lradius 34.5474
lwrist -19.4554
lhand -41.0678 6.57904
lfingers 7.12502
lthumb -13.9969 36.0878
rfemur -13.1953 -16.7919 18.8519
rtibia 28.029
rfoot -18.9141 5.1501
rtoes -14.4938
lfemur 21.5052 6.40461 -11.4307
ltibia 6.48178
lfoot -18.9779 -31.8098
ltoes -6.86808
